<svg class="svg-logo" viewBox="0 0 180 197" version="1.1" xmlns="http://www.w3.org/2000/svg">
    <title>Sputnik</title>
    <g id="Page-1" stroke="none" stroke-width="1" fill="none" fill-rule="evenodd">
        <g id="Artboard" transform="translate(-97.000000, -38.000000)" fill-rule="nonzero">
            <g id="Sputnik" transform="translate(183.270621, 137.053603) rotate(30.000000) translate(-183.270621, -137.053603) translate(101.770621, 29.053603)">
                <path d="M67.4008514,133.465031 L60.9171383,171.837929 C60.5643961,173.925582 61.9666639,175.904616 64.049191,176.258227 C66.1317182,176.611837 68.1058941,175.206118 68.4586363,173.118465 L74.9423493,134.745567 C75.2950916,132.657915 73.8928238,130.67888 71.8102966,130.32527 C69.7277695,129.971659 67.7535936,131.377378 67.4008514,133.465031 Z" id="Line-Copy-2" fill="#FFFFFF" opacity="0.200000003"></path>
                <path d="M110.724804,7.63550029 C110.724804,7.63550029 139.686902,47.9498402 114.205702,89.1130346 C88.7245017,130.276229 43.3605577,115.621868 43.3605577,115.621868 C43.3605577,115.621868 72.8865705,147.118016 107.648804,132.03413 C142.411039,116.950244 153.204676,98.7071584 153.204676,63.634727 C153.204676,28.5622956 110.724804,7.63550029 110.724804,7.63550029 Z" id="Path-2" fill="#D2DEF2" opacity="0.300000012"></path>
                <path d="M88.1042513,128.581795 C120.843196,128.581795 147.383354,101.976316 147.383354,69.1567948 C147.383354,36.3372735 120.843196,9.7317947 88.1042513,9.7317947 C55.3653068,9.7317947 28.8251484,36.3372735 28.8251484,69.1567948 C28.8251484,101.976316 55.3653068,128.581795 88.1042513,128.581795 Z M88.1042513,137.783085 C50.2960509,137.783085 19.6464486,107.058048 19.6464486,69.1567948 C19.6464486,31.2555412 50.2960509,0.530504368 88.1042513,0.530504368 C125.912452,0.530504368 156.562054,31.2555412 156.562054,69.1567948 C156.562054,107.058048 125.912452,137.783085 88.1042513,137.783085 Z" id="Oval" fill="#FFFFFF"></path>
                <ellipse id="Oval-2" fill="#FFFFFF" opacity="0.200000003" cx="87.0965727" cy="68.8743564" rx="64.7384248" ry="65.3737775"></ellipse>
                <path d="M13.3730599,67.689407 C13.1380263,65.4046468 14.7812862,63.8636278 17.0565598,64.2321782 C17.0565598,64.2321782 51.4421659,70.3808638 88.6628242,70.3808638 C125.883483,70.3808638 158.61598,64.2575206 158.61598,64.2575206 C160.878676,63.868139 162.565147,65.4158124 162.361138,67.6942161 C162.361138,67.6942161 161.734798,77.3813227 159.799344,84.7732607 C157.863891,92.1651987 156.405959,95.3898706 156.405959,95.3898706 C155.576481,97.5285309 153.083308,99.6253963 150.815661,100.047707 C150.815661,100.047707 125.543577,105.513936 88.8620902,105.513936 C52.1806035,105.513936 26.9210905,99.861666 26.9210905,99.861666 C24.67515,99.4151716 21.8098941,97.5066812 20.712963,95.4982323 C20.712963,95.4982323 19.7086966,95.348613 16.7102845,84.7731641 C13.7118723,74.1977153 13.3730599,67.689407 13.3730599,67.689407 Z" id="Rectangle" fill="#FFFFFF" opacity="0.699999988"></path>
                <path d="M28.5188223,90.9243533 C28.496206,90.890957 28.4697505,90.8500974 28.4349057,90.7989795 C28.4205898,90.7779778 28.4048578,90.7552446 28.387658,90.7307962 C27.9508244,90.1098657 27.323501,89.4447848 26.394336,88.7981844 L28.0750734,89.9677995 L29.1011586,91.7422741 C28.8461605,91.3012896 28.6968318,91.0669806 28.5188223,90.9243533 C28.3813196,90.8154211 28.2309802,90.7605389 28.007473,90.7082929 C28.1006959,90.7286901 28.2435036,90.7591603 28.4349057,90.7989795 C28.6938432,90.8525149 28.8312917,90.8806126 28.9843006,90.9115657 C29.9073084,91.0982864 31.003572,91.3083105 32.2653168,91.5359708 C35.9113175,92.1938291 40.1270095,92.8545138 44.8500288,93.4728201 C58.3960968,95.2461815 73.2345756,96.3115615 88.8632817,96.3115615 C104.50569,96.3115615 119.362792,95.2797524 132.930661,93.5622026 C137.661863,92.963282 141.885801,92.3232569 145.539896,91.685882 C146.532173,91.5128015 147.422552,91.3502115 148.20727,91.2007591 C148.317676,90.9029829 148.434082,90.5814827 148.555865,90.2366052 C149.336286,88.0265296 150.142106,85.4169206 150.922564,82.4361738 C151.274722,81.0912011 151.609682,79.4811032 151.918432,77.6722026 C152.088306,76.6769456 152.246402,75.6460619 152.392709,74.5933036 C148.336332,75.2025905 143.909376,75.8048345 139.173932,76.3737058 C122.489469,78.3780186 105.34916,79.5810697 88.6640157,79.5810697 C71.9864628,79.5810697 54.5473543,78.3754668 37.3558842,76.3672755 C32.4728661,75.7968743 27.8906092,75.1930763 23.6783332,74.5823798 C24.1750631,77.0469 24.7887013,79.604942 25.5404838,82.2564913 C26.5768037,85.9116084 27.4388894,88.4479267 28.0953272,90.0028256 C28.1908014,90.2289746 28.2819254,90.434363 28.3686025,90.6194135 C28.4019342,90.6905747 28.43151,90.751917 28.4571052,90.8035945 C28.4812967,90.8524378 28.5019323,90.8926474 28.5188223,90.9243533 Z M13.2602146,66.7231716 C13.0881618,64.9714496 14.34888,63.7904201 16.0879923,64.0758717 C16.0879923,64.0758717 51.4433574,70.3797793 88.6640157,70.3797793 C125.884674,70.3797793 159.584113,64.0957809 159.584113,64.0957809 C161.312782,63.7951267 162.603473,64.9694591 162.450948,66.7342179 C162.450948,66.7342179 161.735989,77.3802382 159.800536,84.7721762 C157.865083,92.1641142 156.067938,96.2979869 156.067938,96.2979869 C155.425802,97.9345095 153.50985,99.5419399 151.786809,99.8691392 C151.786809,99.8691392 125.544769,105.512852 88.8632817,105.512852 C52.181795,105.512852 25.9707468,99.6804269 25.9707468,99.6804269 C24.2503247,99.3334291 22.0441471,97.8854975 21.1601617,96.3567651 C21.1601617,96.3567651 19.7098881,95.3475284 16.7114759,84.7720796 C13.7130637,74.1966308 13.2602146,66.7231716 13.2602146,66.7231716 Z" id="Rectangle" fill="#FFFFFF"></path>
                <path d="M51.3103914,124.942278 L9.0622607,157.566124 C7.0542921,159.116669 6.68039155,162.005421 8.22713042,164.018332 C9.7738693,166.031242 12.655529,166.406063 14.6634976,164.855518 L56.9116284,132.231672 C58.9195969,130.681126 59.2934975,127.792374 57.7467586,125.779463 C56.2000197,123.766553 53.31836,123.391732 51.3103914,124.942278 Z" id="Line" fill="#FFFFFF" transform="translate(32.986945, 144.898897) rotate(-30.000000) translate(-32.986945, -144.898897) "></path>
                <path d="M137.411997,120.760527 L118.289706,174.254896 C117.434679,176.646825 118.675823,179.28071 121.061879,180.137842 C123.447936,180.994974 126.075354,179.750775 126.930382,177.358846 L146.052673,123.864477 C146.907701,121.472547 145.666557,118.838663 143.2805,117.981531 C140.894443,117.124399 138.267025,118.368597 137.411997,120.760527 Z" id="Line-Copy-3" fill="#FFFFFF" transform="translate(132.171189, 149.059686) rotate(-30.000000) translate(-132.171189, -149.059686) "></path>
                <path d="M108.122943,124.422184 L64.6732026,201.723308 C63.42895,203.936949 64.2103888,206.742608 66.4185949,207.989923 C68.626801,209.237238 71.4255718,208.453876 72.6698244,206.240235 L116.119565,128.939112 C117.363818,126.725471 116.582379,123.919811 114.374173,122.672496 C112.165967,121.425182 109.367196,122.208544 108.122943,124.422184 Z" id="Line-Copy" fill="#FFFFFF" transform="translate(90.396384, 165.331210) rotate(330.000000) translate(-90.396384, -165.331210) "></path>
            </g>
        </g>
    </g>
</svg>
